<mxfile host="65bd71144e">
    <diagram name="Page-1" id="5f0bae14-7c28-e335-631c-24af17079c00">
        <mxGraphModel dx="1329" dy="1892" grid="1" gridSize="10" guides="1" tooltips="1" connect="1" arrows="1" fold="1" page="1" pageScale="1" pageWidth="1100" pageHeight="850" background="none" math="0" shadow="0">
            <root>
                <mxCell id="0"/>
                <mxCell id="1" parent="0"/>
                <mxCell id="hkM4-i4ezUz_ertUyBPf-23" style="edgeStyle=orthogonalEdgeStyle;rounded=0;orthogonalLoop=1;jettySize=auto;html=1;exitX=0;exitY=0.75;exitDx=0;exitDy=0;entryX=0.5;entryY=0;entryDx=0;entryDy=0;" parent="1" source="39150e848f15840c-4" target="hkM4-i4ezUz_ertUyBPf-5" edge="1">
                    <mxGeometry relative="1" as="geometry"/>
                </mxCell>
                <mxCell id="hkM4-i4ezUz_ertUyBPf-24" style="edgeStyle=orthogonalEdgeStyle;rounded=0;orthogonalLoop=1;jettySize=auto;html=1;exitX=1;exitY=0.75;exitDx=0;exitDy=0;" parent="1" source="39150e848f15840c-4" target="hkM4-i4ezUz_ertUyBPf-6" edge="1">
                    <mxGeometry relative="1" as="geometry"/>
                </mxCell>
                <mxCell id="39150e848f15840c-4" value="KenkoApp" style="html=1;rounded=0;shadow=0;comic=0;labelBackgroundColor=none;strokeWidth=1;fontFamily=Verdana;fontSize=12;align=center;" parent="1" vertex="1">
                    <mxGeometry x="275" y="230" width="110" height="50" as="geometry"/>
                </mxCell>
                <mxCell id="39150e848f15840c-5" value="Module" style="shape=component;align=left;spacingLeft=36;rounded=0;shadow=0;comic=0;labelBackgroundColor=none;strokeWidth=1;fontFamily=Verdana;fontSize=12;html=1;" parent="1" vertex="1">
                    <mxGeometry x="750" y="75" width="120" height="60" as="geometry"/>
                </mxCell>
                <mxCell id="39150e848f15840c-7" value="Module" style="shape=component;align=left;spacingLeft=36;rounded=0;shadow=0;comic=0;labelBackgroundColor=none;strokeWidth=1;fontFamily=Verdana;fontSize=12;html=1;" parent="1" vertex="1">
                    <mxGeometry x="920" y="70" width="120" height="60" as="geometry"/>
                </mxCell>
                <mxCell id="39150e848f15840c-8" value="&amp;laquo;interface&amp;raquo;&lt;br&gt;&lt;b&gt;Name&lt;/b&gt;" style="html=1;rounded=0;shadow=0;comic=0;labelBackgroundColor=none;strokeWidth=1;fontFamily=Verdana;fontSize=12;align=center;" parent="1" vertex="1">
                    <mxGeometry x="650" y="-30" width="110" height="50" as="geometry"/>
                </mxCell>
                <mxCell id="39150e848f15840c-10" value="Module" style="shape=component;align=left;spacingLeft=36;rounded=0;shadow=0;comic=0;labelBackgroundColor=none;strokeWidth=1;fontFamily=Verdana;fontSize=12;html=1;" parent="1" vertex="1">
                    <mxGeometry x="930" y="270" width="120" height="60" as="geometry"/>
                </mxCell>
                <mxCell id="hkM4-i4ezUz_ertUyBPf-2" style="edgeStyle=orthogonalEdgeStyle;rounded=0;orthogonalLoop=1;jettySize=auto;html=1;exitX=0.5;exitY=1;exitDx=0;exitDy=0;" parent="1" source="hkM4-i4ezUz_ertUyBPf-1" edge="1">
                    <mxGeometry relative="1" as="geometry">
                        <mxPoint x="160" y="690" as="targetPoint"/>
                        <Array as="points">
                            <mxPoint x="290" y="690"/>
                        </Array>
                    </mxGeometry>
                </mxCell>
                <mxCell id="hkM4-i4ezUz_ertUyBPf-1" value="" style="rhombus;whiteSpace=wrap;html=1;" parent="1" vertex="1">
                    <mxGeometry x="280" y="580" width="20" height="50" as="geometry"/>
                </mxCell>
                <mxCell id="hkM4-i4ezUz_ertUyBPf-3" value="KenkoDB_DEV" style="html=1;rounded=0;shadow=0;comic=0;labelBackgroundColor=none;strokeWidth=1;fontFamily=Verdana;fontSize=12;align=center;" parent="1" vertex="1">
                    <mxGeometry x="60" y="660" width="110" height="50" as="geometry"/>
                </mxCell>
                <mxCell id="hkM4-i4ezUz_ertUyBPf-4" value="Azure Cloud" style="ellipse;shape=cloud;whiteSpace=wrap;html=1;" parent="1" vertex="1">
                    <mxGeometry x="270" y="330" width="120" height="80" as="geometry"/>
                </mxCell>
                <mxCell id="hkM4-i4ezUz_ertUyBPf-12" style="edgeStyle=orthogonalEdgeStyle;rounded=0;orthogonalLoop=1;jettySize=auto;html=1;exitX=0.5;exitY=1;exitDx=0;exitDy=0;entryX=0.5;entryY=0;entryDx=0;entryDy=0;strokeColor=default;jumpStyle=gap;jumpSize=10;dashed=1;dashPattern=8 8;" parent="1" source="hkM4-i4ezUz_ertUyBPf-5" target="hkM4-i4ezUz_ertUyBPf-3" edge="1">
                    <mxGeometry relative="1" as="geometry"/>
                </mxCell>
                <mxCell id="hkM4-i4ezUz_ertUyBPf-5" value="KenkoDEV" style="html=1;rounded=0;shadow=0;comic=0;labelBackgroundColor=none;strokeWidth=1;fontFamily=Verdana;fontSize=12;align=center;" parent="1" vertex="1">
                    <mxGeometry x="90" y="360" width="110" height="50" as="geometry"/>
                </mxCell>
                <mxCell id="hkM4-i4ezUz_ertUyBPf-6" value="KenkoPROD" style="html=1;rounded=0;shadow=0;comic=0;labelBackgroundColor=none;strokeWidth=1;fontFamily=Verdana;fontSize=12;align=center;" parent="1" vertex="1">
                    <mxGeometry x="470" y="360" width="110" height="50" as="geometry"/>
                </mxCell>
                <mxCell id="hkM4-i4ezUz_ertUyBPf-8" style="edgeStyle=orthogonalEdgeStyle;rounded=0;orthogonalLoop=1;jettySize=auto;html=1;exitX=0.5;exitY=1;exitDx=0;exitDy=0;" parent="1" source="hkM4-i4ezUz_ertUyBPf-9" edge="1">
                    <mxGeometry relative="1" as="geometry">
                        <mxPoint x="500" y="700" as="targetPoint"/>
                        <mxPoint x="440" y="700" as="sourcePoint"/>
                        <Array as="points">
                            <mxPoint x="350" y="695"/>
                            <mxPoint x="500" y="695"/>
                        </Array>
                    </mxGeometry>
                </mxCell>
                <mxCell id="hkM4-i4ezUz_ertUyBPf-9" value="" style="rhombus;whiteSpace=wrap;html=1;" parent="1" vertex="1">
                    <mxGeometry x="340" y="580" width="20" height="50" as="geometry"/>
                </mxCell>
                <mxCell id="hkM4-i4ezUz_ertUyBPf-10" value="KenkoDB" style="html=1;rounded=0;shadow=0;comic=0;labelBackgroundColor=none;strokeWidth=1;fontFamily=Verdana;fontSize=12;align=center;" parent="1" vertex="1">
                    <mxGeometry x="495" y="670" width="110" height="50" as="geometry"/>
                </mxCell>
                <mxCell id="hkM4-i4ezUz_ertUyBPf-18" style="edgeStyle=orthogonalEdgeStyle;rounded=0;orthogonalLoop=1;jettySize=auto;html=1;exitX=0.619;exitY=1.051;exitDx=0;exitDy=0;strokeColor=default;jumpStyle=gap;jumpSize=10;dashed=1;dashPattern=8 8;exitPerimeter=0;entryX=0.605;entryY=-0.04;entryDx=0;entryDy=0;entryPerimeter=0;" parent="1" source="hkM4-i4ezUz_ertUyBPf-6" target="hkM4-i4ezUz_ertUyBPf-10" edge="1">
                    <mxGeometry relative="1" as="geometry">
                        <mxPoint x="590" y="425" as="sourcePoint"/>
                        <mxPoint x="540" y="650" as="targetPoint"/>
                    </mxGeometry>
                </mxCell>
                <mxCell id="hkM4-i4ezUz_ertUyBPf-21" value="" style="rhombus;whiteSpace=wrap;html=1;fillColor=#FFFFFF;" parent="1" vertex="1">
                    <mxGeometry x="320" y="410" width="20" height="35" as="geometry"/>
                </mxCell>
                <mxCell id="hkM4-i4ezUz_ertUyBPf-22" style="edgeStyle=orthogonalEdgeStyle;rounded=0;orthogonalLoop=1;jettySize=auto;html=1;exitX=0.5;exitY=1;exitDx=0;exitDy=0;" parent="1" source="hkM4-i4ezUz_ertUyBPf-21" edge="1">
                    <mxGeometry relative="1" as="geometry">
                        <mxPoint x="320" y="550" as="targetPoint"/>
                        <Array as="points">
                            <mxPoint x="330" y="550"/>
                        </Array>
                    </mxGeometry>
                </mxCell>
                <mxCell id="39150e848f15840c-3" value="DBMS&lt;br&gt;" style="verticalAlign=top;align=left;spacingTop=8;spacingLeft=2;spacingRight=12;shape=cube;size=10;direction=south;fontStyle=4;html=1;rounded=0;shadow=0;comic=0;labelBackgroundColor=none;strokeWidth=1;fontFamily=Verdana;fontSize=12" parent="1" vertex="1">
                    <mxGeometry x="255" y="490" width="150" height="90" as="geometry"/>
                </mxCell>
            </root>
        </mxGraphModel>
    </diagram>
</mxfile>